<?xml version="1.0" standalone="no"?>
<!DOCTYPE svg PUBLIC "-//W3C//DTD SVG 20010904//EN"
 "http://www.w3.org/TR/2001/REC-SVG-20010904/DTD/svg10.dtd">
<svg version="1.0" xmlns="http://www.w3.org/2000/svg"
 width="778.000000pt" height="778.000000pt" viewBox="0 0 778.000000 778.000000"
 preserveAspectRatio="xMidYMid meet">
<metadata>
Created by potrace 1.11, written by Peter Selinger 2001-2013
</metadata>
<g transform="translate(0.000000,778.000000) scale(0.100000,-0.100000)"
fill="#000000" stroke="none">
<path d="M589 7466 c-2 -2 -21 -7 -42 -10 -44 -7 -97 -32 -114 -55 -7 -9 -13
-11 -13 -6 0 12 -20 -21 -50 -82 -20 -41 -27 -103 -16 -151 6 -27 47 -101 81
-147 52 -71 166 -312 179 -379 2 -12 9 -33 15 -48 6 -16 8 -28 5 -28 -4 0 -2
-6 4 -12 6 -7 10 -16 10 -21 0 -4 4 -26 8 -50 4 -23 9 -51 10 -62 2 -11 6 -38
9 -60 13 -92 16 -168 20 -520 3 -203 8 -404 11 -445 4 -41 8 -90 8 -107 1 -18
4 -33 7 -33 3 0 6 -15 7 -32 3 -105 99 -380 166 -473 11 -16 20 -32 20 -35 -2
-7 57 -93 69 -101 10 -7 -19 -69 -37 -81 -6 -4 -7 -8 -3 -8 5 0 0 -12 -10 -27
-35 -52 -104 -204 -134 -298 -34 -103 -80 -288 -75 -302 3 -7 2 -13 -2 -13 -5
0 -8 -10 -9 -22 0 -13 -4 -52 -9 -88 -16 -127 -9 -486 12 -582 3 -13 7 -34 10
-48 10 -55 26 -126 31 -140 9 -21 10 -34 3 -40 -12 -12 -60 -90 -60 -100 0 -5
-4 -10 -10 -10 -5 0 -10 -7 -10 -15 0 -9 -7 -18 -15 -21 -8 -4 -13 -10 -10
-14 3 -4 -2 -13 -10 -20 -8 -7 -15 -16 -15 -21 0 -4 -18 -34 -40 -65 -22 -32
-40 -63 -40 -71 0 -7 -4 -13 -9 -13 -5 0 -13 -9 -16 -20 -3 -11 -12 -26 -18
-32 -7 -7 -35 -50 -62 -95 -28 -46 -54 -83 -58 -83 -5 0 -6 -4 -3 -9 3 -5 -1
-14 -9 -21 -8 -7 -15 -19 -15 -26 0 -8 -4 -14 -10 -14 -5 0 -10 -7 -10 -15 0
-8 -4 -15 -8 -15 -5 0 -21 -25 -37 -55 -15 -30 -30 -55 -34 -55 -8 0 -28 -53
-35 -95 -3 -16 -8 -41 -11 -55 -15 -73 -28 -154 -29 -177 -1 -13 -3 -23 -6
-23 -3 0 -7 -12 -8 -27 -1 -16 -4 -39 -7 -53 -15 -74 -38 -198 -40 -215 -4
-27 -13 -80 -25 -140 -5 -27 -12 -61 -14 -75 -3 -14 -7 -35 -10 -46 -2 -12 -7
-39 -11 -60 -3 -22 -8 -52 -10 -69 -3 -16 -10 -50 -15 -75 -9 -43 -12 -63 -26
-155 -3 -22 -8 -42 -9 -43 -6 -6 18 -66 34 -89 9 -12 22 -23 29 -23 6 0 12 -4
12 -10 0 -5 7 -10 15 -10 8 0 15 -4 15 -9 0 -5 14 -14 30 -21 17 -7 30 -16 30
-21 0 -5 7 -9 15 -9 8 0 15 -4 15 -8 0 -5 12 -15 27 -23 16 -8 30 -16 33 -19
3 -3 55 -39 115 -79 61 -41 119 -82 131 -92 11 -11 24 -19 28 -19 9 0 70 -43
74 -52 2 -5 10 -8 18 -8 8 0 14 -4 14 -10 0 -5 6 -10 14 -10 8 0 16 -4 18 -10
2 -5 17 -12 33 -16 22 -4 36 0 53 14 13 11 23 24 23 29 0 4 9 28 20 52 10 24
19 47 19 51 0 5 3 10 8 12 10 4 72 147 72 167 0 15 -24 44 -146 173 -24 26
-44 49 -44 50 1 2 -5 16 -13 31 -13 25 -13 36 0 90 9 34 16 70 16 80 1 9 4 17
7 17 4 0 7 6 7 13 0 6 10 46 22 87 28 91 28 93 30 102 1 4 8 26 16 48 8 22 14
42 15 45 0 3 1 7 1 10 1 3 3 10 4 15 1 6 3 11 5 13 1 2 4 11 14 52 2 11 9 34
16 50 6 17 11 31 11 33 -1 1 0 4 0 7 1 3 3 10 4 15 1 6 3 11 5 13 2 2 6 19 14
52 2 11 5 20 6 20 1 0 3 7 5 15 2 8 13 47 25 85 19 66 28 97 34 120 12 51 45
90 128 147 49 35 99 71 110 81 12 9 24 17 27 17 5 0 28 17 78 60 7 5 17 10 23
10 5 0 10 5 10 10 0 6 7 10 15 10 9 0 18 6 21 14 6 16 80 39 109 33 56 -11
101 -50 111 -95 3 -15 7 -31 8 -37 4 -12 -43 -145 -56 -162 -6 -7 -8 -13 -4
-13 4 0 -3 -19 -15 -43 -12 -23 -22 -44 -22 -47 1 -6 -3 -16 -49 -130 -49
-125 -46 -148 46 -260 34 -41 68 -82 76 -90 8 -9 26 -30 40 -48 14 -18 32 -41
40 -51 54 -66 97 -116 108 -127 6 -7 12 -16 12 -21 0 -5 9 -15 20 -23 11 -8
20 -20 20 -28 0 -7 4 -10 10 -7 5 3 10 -1 10 -9 0 -9 9 -21 20 -28 11 -7 20
-18 20 -25 0 -6 3 -13 8 -15 4 -2 27 -28 52 -58 58 -71 83 -100 95 -114 6 -6
26 -31 45 -56 19 -25 37 -47 40 -50 4 -3 37 -43 76 -90 38 -47 73 -90 79 -96
12 -13 59 -72 78 -98 12 -17 30 -18 238 -18 427 1 484 2 499 12 17 10 30 152
18 195 -3 14 -2 25 3 25 5 0 5 10 -1 24 -5 13 -6 27 -3 30 9 8 10 48 2 78 -4
16 -3 28 3 30 15 5 -33 54 -59 60 -13 4 -23 3 -23 -2 0 -4 -18 -4 -40 0 -22 4
-40 3 -40 -2 0 -5 -9 -4 -20 2 -12 6 -20 7 -20 1 0 -5 -8 -7 -17 -5 -10 2 -37
5 -60 7 -55 6 -88 28 -123 85 -16 26 -33 52 -37 57 -4 6 -15 24 -23 40 -8 17
-27 49 -42 71 -16 23 -28 45 -28 49 0 3 -14 26 -30 50 -17 24 -30 48 -30 53 0
5 -7 15 -15 22 -9 7 -13 15 -11 17 2 3 -3 13 -12 24 -18 21 -60 92 -90 151
-10 21 -22 35 -25 31 -4 -3 -8 -1 -8 5 -2 17 -4 23 -18 56 -13 32 -7 91 10
113 6 7 8 13 4 13 -5 0 1 8 11 17 11 10 33 36 49 58 16 22 37 49 47 59 10 11
18 23 18 27 0 4 6 14 13 21 10 10 67 86 139 183 4 6 21 26 38 45 16 19 30 38
30 42 0 4 17 16 38 25 34 17 76 18 532 18 557 -1 539 1 579 -76 17 -34 17
-129 1 -129 -4 0 -7 -6 -8 -12 -1 -15 -10 -52 -12 -55 -2 -2 -3 -6 -4 -10 -1
-5 -5 -14 -10 -21 -4 -7 -5 -16 -2 -19 3 -3 1 -13 -6 -20 -7 -8 -13 -22 -14
-31 -2 -18 -40 -146 -51 -172 -4 -8 -8 -19 -8 -25 -1 -5 -5 -18 -9 -27 -4 -9
-8 -22 -10 -30 -1 -7 -4 -17 -8 -23 -3 -5 -9 -26 -13 -45 -4 -19 -12 -40 -17
-47 -5 -7 -7 -17 -3 -23 3 -5 1 -10 -6 -10 -7 0 -10 -3 -6 -6 3 -3 -3 -28 -13
-55 -11 -27 -17 -49 -14 -49 4 0 2 -6 -4 -12 -9 -12 -24 -66 -23 -85 0 -5 -7
-19 -15 -31 -9 -13 -13 -26 -10 -29 3 -3 0 -15 -6 -27 -7 -11 -11 -25 -10 -30
2 -4 -1 -13 -6 -20 -15 -18 -6 -79 21 -147 35 -89 49 -124 48 -127 -1 -1 6
-16 14 -32 8 -16 15 -31 14 -32 0 -2 4 -14 9 -28 20 -48 25 -65 24 -73 -1 -4
3 -7 9 -7 6 0 9 -7 5 -15 -3 -8 -1 -15 4 -15 6 0 9 -3 8 -7 -1 -5 6 -29 16
-55 l19 -48 61 0 c78 -1 484 -1 512 0 19 0 23 7 26 46 2 25 0 48 -3 50 -4 2
-5 13 -2 24 3 11 0 26 -6 33 -6 8 -8 17 -4 20 3 4 2 12 -4 19 -5 7 -15 33 -22
58 -8 25 -15 52 -18 60 -2 8 -4 16 -4 17 0 2 -7 22 -15 45 -9 24 -17 48 -18
53 -1 6 -4 15 -7 20 -10 17 1 88 19 122 5 10 17 38 25 63 9 25 32 90 53 145
20 55 52 143 70 195 19 52 38 104 44 115 5 11 21 54 36 95 40 111 51 142 65
175 7 17 14 38 16 49 2 10 9 33 17 50 24 54 60 150 63 165 3 23 56 71 86 79
15 4 133 7 261 7 225 -1 233 -2 264 -24 18 -12 32 -26 32 -31 0 -5 11 -20 25
-34 13 -13 26 -30 27 -37 2 -7 13 -23 26 -35 12 -12 22 -26 22 -33 0 -6 3 -11
8 -11 4 -1 23 -25 42 -55 19 -30 38 -55 43 -55 4 0 7 -7 7 -15 0 -8 4 -15 8
-15 4 0 16 -13 25 -30 10 -16 23 -35 30 -42 7 -7 25 -33 42 -58 16 -25 32 -47
35 -50 3 -3 46 -61 95 -130 49 -69 94 -128 100 -132 5 -4 6 -8 2 -8 -4 0 4
-11 18 -24 15 -14 26 -28 25 -31 -1 -4 7 -18 19 -31 12 -13 21 -29 21 -34 0
-6 5 -10 10 -10 6 0 10 -6 10 -13 0 -7 9 -19 20 -27 11 -8 20 -20 20 -27 0 -7
5 -13 10 -13 6 0 10 -5 10 -10 0 -6 5 -16 10 -23 18 -21 64 -84 80 -108 8 -12
23 -31 33 -41 9 -10 17 -21 17 -25 0 -5 12 -21 26 -38 14 -16 32 -42 40 -58 8
-15 19 -27 24 -27 6 0 10 -5 10 -11 0 -5 27 -46 60 -89 33 -43 60 -84 60 -89
0 -6 5 -11 10 -11 6 0 10 -7 10 -16 0 -8 5 -12 10 -9 6 3 10 -1 10 -9 0 -39
23 -41 431 -40 297 0 400 4 420 13 23 11 47 44 55 74 1 4 2 8 4 10 5 6 6 67 1
67 -3 0 -7 19 -8 41 0 23 -6 46 -12 52 -6 6 -11 19 -11 29 0 10 -4 18 -8 18
-5 0 -15 12 -22 26 -17 30 -83 71 -125 77 -16 2 -37 6 -45 10 -8 3 -20 7 -27
9 -25 6 -152 104 -153 116 0 7 -4 10 -10 7 -6 -3 -10 -2 -10 3 0 6 -12 23 -27
40 -78 85 -93 103 -93 112 0 6 -4 10 -8 10 -4 0 -16 15 -27 33 -16 28 -39 60
-75 104 -6 7 -10 17 -10 22 0 5 -6 16 -13 23 -12 13 -127 204 -182 303 -45 81
-97 178 -113 210 -8 17 -24 42 -34 58 -11 15 -16 27 -12 27 4 0 0 8 -9 18 -10
10 -14 22 -10 25 3 4 1 7 -5 7 -10 0 -28 38 -24 53 1 4 -2 7 -7 7 -5 0 -14 15
-22 33 -7 17 -16 34 -19 37 -12 9 -61 116 -67 146 -3 16 -6 61 -6 99 0 61 3
89 16 167 2 10 6 20 9 24 4 3 4 12 1 20 -3 8 -1 14 4 14 5 0 10 6 10 13 1 28
12 65 36 124 14 34 22 64 19 67 -3 3 0 6 6 6 7 0 12 6 12 13 0 14 87 190 131
262 16 28 35 60 41 73 6 12 15 22 20 22 4 0 8 6 8 13 0 7 9 19 19 27 11 7 18
17 15 22 -3 4 2 11 10 14 9 3 16 10 16 15 0 20 154 184 225 239 91 70 174 108
250 115 22 2 51 6 65 9 13 3 41 8 61 11 20 3 50 9 67 14 17 5 33 7 36 3 3 -3
6 0 6 7 0 8 7 11 15 7 8 -3 15 -1 15 4 0 6 3 9 8 8 4 -1 23 4 42 11 19 8 44
15 55 18 11 2 22 8 23 13 2 6 9 10 16 10 16 0 145 87 171 115 39 43 84 103 87
116 2 8 6 17 11 20 4 3 15 28 25 55 17 46 48 103 64 114 3 3 16 39 27 80 31
112 29 253 -6 306 -7 11 -11 23 -8 25 9 10 -96 109 -115 109 -6 0 -10 3 -10 8
0 4 -15 23 -34 42 -18 20 -58 71 -89 115 -31 44 -60 85 -64 91 -5 5 -13 19
-20 30 -6 10 -42 68 -80 129 -37 60 -70 114 -72 120 -2 5 -13 20 -25 33 -11
13 -20 25 -19 28 4 6 -32 64 -39 64 -5 0 -8 6 -8 14 0 18 -84 74 -170 113
-115 54 -145 67 -150 68 -3 1 -16 6 -30 12 -14 6 -44 19 -68 28 -28 12 -41 22
-38 31 3 8 2 14 -2 14 -6 0 -40 101 -48 143 -1 4 -3 9 -4 12 -1 3 -3 8 -5 13
-1 4 -5 15 -8 25 -17 44 -20 53 -24 72 -2 11 -6 27 -10 35 -3 8 -7 17 -8 20
-2 10 -66 215 -71 230 -3 8 -5 16 -4 18 0 1 -6 16 -15 32 -13 26 -19 29 -48
23 -40 -7 -145 -55 -177 -82 -93 -74 -119 -98 -125 -114 -4 -9 -11 -15 -16
-12 -5 4 -9 1 -9 -5 0 -6 -9 -21 -21 -33 -29 -30 -110 -151 -145 -215 -59
-107 -91 -177 -87 -184 2 -5 -1 -8 -6 -8 -6 0 -11 -9 -11 -20 0 -11 -4 -20 -8
-20 -5 0 -9 -6 -9 -12 -1 -7 -4 -31 -8 -53 -3 -22 -8 -53 -11 -69 -3 -15 -11
-44 -19 -62 -8 -19 -14 -35 -13 -37 5 -8 -37 -97 -45 -97 -6 0 -8 -3 -4 -6 7
-7 -44 -91 -77 -127 -14 -15 -23 -27 -20 -27 8 0 -78 -82 -110 -105 -15 -11
-37 -28 -48 -37 -11 -10 -29 -20 -39 -23 -11 -4 -19 -10 -19 -15 0 -5 -13 -11
-30 -15 -16 -4 -30 -10 -30 -14 0 -6 -94 -45 -112 -46 -3 0 -10 -3 -14 -7 -4
-5 -16 -8 -26 -8 -10 0 -18 -5 -18 -11 0 -5 -3 -8 -8 -5 -4 2 -34 -2 -67 -10
-78 -18 -127 -25 -197 -29 -31 -2 -60 -5 -65 -7 -18 -10 -355 4 -438 18 -16 3
-42 6 -57 7 -16 1 -28 4 -28 7 0 3 -12 6 -27 7 -47 2 -117 13 -133 20 -18 7
-25 9 -65 16 -16 3 -52 10 -80 17 -27 6 -57 13 -65 15 -8 2 -53 13 -100 25
-47 12 -92 23 -100 25 -19 4 -78 19 -155 40 -55 14 -85 21 -125 30 -8 2 -15 4
-15 5 0 1 -11 4 -25 6 -14 3 -41 9 -60 14 -19 5 -38 10 -42 10 -4 1 -37 10
-72 20 -36 10 -67 16 -70 13 -3 -3 -12 -1 -19 5 -7 7 -31 14 -53 17 -21 4 -47
8 -56 11 -9 3 -25 7 -35 9 -10 3 -37 9 -61 15 -24 6 -47 8 -52 5 -5 -3 -11 -1
-15 5 -3 5 -19 10 -35 10 -16 0 -31 4 -34 9 -4 5 -14 8 -23 7 -10 -2 -36 1
-58 6 -22 5 -52 12 -67 14 -16 2 -43 6 -60 9 -70 12 -85 14 -153 22 -136 16
-523 7 -556 -13 -4 -2 -24 -6 -45 -10 -60 -9 -200 -62 -283 -106 -70 -37 -159
-93 -171 -108 -3 -3 -25 -21 -50 -40 -25 -19 -50 -41 -56 -49 -9 -12 -16 -5
-37 36 -14 28 -23 54 -20 57 4 3 2 6 -3 6 -6 0 -16 24 -24 53 -8 28 -15 57
-17 62 -29 104 -34 165 -38 490 -4 303 -12 549 -19 625 -9 89 -17 155 -22 180
-3 14 -8 39 -11 55 -8 46 -11 60 -13 60 -1 0 -3 7 -5 15 -2 8 -6 26 -9 40 -3
14 -8 38 -11 55 -3 16 -11 35 -17 42 -6 8 -8 16 -5 20 4 3 3 11 -2 17 -5 6
-14 29 -20 51 -11 36 -29 80 -52 127 -5 10 -9 25 -9 33 0 8 -4 15 -8 15 -8 0
-36 60 -33 73 0 4 -3 7 -9 7 -5 0 -10 5 -10 11 0 12 -79 148 -97 167 -7 7 -13
18 -13 23 0 5 -8 17 -17 27 -10 10 -27 30 -38 45 -21 29 -85 65 -131 73 -15 3
-31 7 -34 9 -4 3 -9 3 -11 1z"/>
</g>
</svg>
